PathFileType	4	(X/Y/Z)	C:/Users/opensim2020/Desktop/walking_exp_matlab/subject02_walking07_straight_01.trc																																																																																																																																																				
DataRate	CameraRate	NumFrames	NumMarkers	Units	OrigDataRate	OrigDataStartFrame	OrigNumFrames																																																																																																																																																
100	100	4	50	mm	100	692	176																																																																																																																																																
Frame#	Time	LFHD			RFHD			LBHD			RBHD			C7			T10			CLAV			STRN			RBAK			LSHO			LUPA			LELB			LFRM			LWRA			LWRB			LFIN			RSHO			RUPA			RELB			RFRM			RWRA			RWRB			RFIN			LASI			RASI			LPSI			RPSI			LTHI			LKNE			LTIB			LANK			LHEE			LTOE			RTHI			RKNE			RTIB			RANK			RHEE			RTOE			*39			*40			*41			*42			*43			*44			*45			*46			*47			*48			*49		
		X1	Y1	Z1	X2	Y2	Z2	X3	Y3	Z3	X4	Y4	Z4	X5	Y5	Z5	X6	Y6	Z6	X7	Y7	Z7	X8	Y8	Z8	X9	Y9	Z9	X10	Y10	Z10	X11	Y11	Z11	X12	Y12	Z12	X13	Y13	Z13	X14	Y14	Z14	X15	Y15	Z15	X16	Y16	Z16	X17	Y17	Z17	X18	Y18	Z18	X19	Y19	Z19	X20	Y20	Z20	X21	Y21	Z21	X22	Y22	Z22	X23	Y23	Z23	X24	Y24	Z24	X25	Y25	Z25	X26	Y26	Z26	X27	Y27	Z27	X28	Y28	Z28	X29	Y29	Z29	X30	Y30	Z30	X31	Y31	Z31	X32	Y32	Z32	X33	Y33	Z33	X34	Y34	Z34	X35	Y35	Z35	X36	Y36	Z36	X37	Y37	Z37	X38	Y38	Z38	X39	Y39	Z39	X40	Y40	Z40	X41	Y41	Z41	X42	Y42	Z42	X43	Y43	Z43	X44	Y44	Z44	X45	Y45	Z45	X46	Y46	Z46	X47	Y47	Z47	X48	Y48	Z48	X49	Y49	Z49	X50	Y50	Z50
																																																																																																																																																							
45	0.44	-573.22009	1746.46619	1423.01233	-573.11566	1728.4834	1566.29749	-696.16101	1660.83215	1413.78479	-709.10693	1640.66943	1555.37964	-745.47577	1527.50916	1495.20752	-811.52155	1257.05811	1509.30261	-610.77478	1454.91614	1470.33191	-567.35046	1279.84692	1482.52246	-803.35175	1362.09216	1573.49304	-698.35809	1496.19287	1310.24146	-770.23761	1311.05835	1235.1001	-816.48871	1180.08179	1226.75854	-860.83032	1059.23853	1203.48254	-850.91852	918.78876	1200.97754	-901.14746	942.77344	1189.22791	-910.22076	877.242	1175.89722	-645.23511	1499.34729	1670.56018	-639.64783	1314.27649	1769.89319	-597.75165	1172.05188	1792.59412	-538.4198	1066.19202	1803.08948	-464.83148	955.86261	1772.44299	-501.48679	941.61511	1813.78345	-447.9483	893.04895	1809.0769	-594.15875	989.05304	1365.3446	-594.24835	970.10339	1620.59265	-801.8938	1036.50793	1446.70764	-804.55463	1036.74963	1561.99451	-594.92108	688.28851	1293.01184	-564.97809	492.9191	1323.45325	-618.85797	308.12659	1341.14502	-605.93018	85.2214	1372.31116	-625.25989	58.21975	1432.27063	-463.77585	48.23655	1325.64978	-692.24805	666.59314	1670.66943	-714.89874	457.82117	1625.12549	-775.05994	278.36911	1626.46497	-812.18317	89.0878	1582.05652	-850.427	35.67467	1525.71594	-663.47089	32.94341	1599.80322	-680.56213	1803.51379	1511.85364	2845.17822	1033.91382	-3360.37012	NaN	NaN	NaN	NaN	NaN	NaN	NaN	NaN	NaN	NaN	NaN	NaN	NaN	NaN	NaN	NaN	NaN	NaN	NaN	NaN	NaN	NaN	NaN	NaN	NaN	NaN	NaN
46	0.45	-564.63202	1745.41028	1422.32349	-564.44702	1727.73914	1565.5459	-687.76648	1659.76355	1413.36841	-700.38739	1639.92041	1555.0415	-736.94318	1526.65845	1495.12952	-803.41766	1256.35632	1508.95251	-602.21442	1453.95374	1470.31299	-558.99768	1278.81714	1482.86804	-794.26007	1361.05554	1573.20959	-690.11267	1495.10608	1310.23474	-763.86395	1310.68201	1235.01038	-809.99072	1179.70166	1227.29541	-855.29236	1059.34534	1204.08594	-845.70978	918.98621	1200.13147	-896.31329	943.04175	1189.7644	-905.92865	877.58569	1176.16968	-636.57666	1498.91675	1670.32166	-629.23163	1314.11169	1769.89465	-585.37872	1172.40967	1792.91089	-524.16888	1067.49841	1803.14246	-449.09683	958.3363	1771.70361	-485.22339	943.53149	1813.25012	-430.98331	895.87891	1808.19519	-585.08447	987.94989	1365.53796	-586.82117	969.42773	1621.09277	-793.69354	1035.74512	1446.28052	-796.92096	1035.87268	1561.39771	-585.4942	687.45886	1293.56824	-554.46698	491.44873	1324.40479	-599.63275	303.72763	1339.87048	-577.3457	81.79366	1370.10645	-595.50946	53.58173	1430.25635	-433.01587	50.77909	1325.04614	-687.28876	666.04211	1670.62244	-711.16742	457.35849	1625.23328	-773.2923	278.4494	1626.19885	-811.81201	89.45226	1581.73035	-850.16211	36.07197	1525.26794	-663.57892	32.88699	1600.10303	-671.91156	1802.52869	1511.03821	2845.08472	1034.05481	-3360.19409	NaN	NaN	NaN	NaN	NaN	NaN	NaN	NaN	NaN	NaN	NaN	NaN	NaN	NaN	NaN	NaN	NaN	NaN	NaN	NaN	NaN	NaN	NaN	NaN	NaN	NaN	NaN
47	0.46	-556.15155	1744.23755	1421.39392	-555.74048	1726.9624	1564.75635	-679.16077	1658.56873	1412.89307	-691.69476	1639.03455	1554.61035	-728.37311	1525.703	1494.93884	-795.263	1255.5918	1508.45459	-593.61749	1452.89502	1470.09778	-550.57361	1277.75256	1483.13672	-785.90845	1360.34644	1573.16479	-681.70837	1493.87317	1310.08704	-755.99487	1309.87976	1235.45129	-803.02673	1179.23279	1227.75293	-849.14319	1059.26624	1204.48193	-840.43439	918.82916	1199.1571	-890.81055	943.12463	1190.33899	-901.0069	877.77625	1176.27246	-627.88226	1498.28137	1669.94202	-618.92987	1313.8374	1769.76318	-573.18805	1172.65894	1793.09534	-510.45114	1068.59692	1802.54883	-433.8389	960.77051	1770.58545	-469.35037	945.30371	1812.50684	-414.3718	898.59631	1807.12769	-576.05963	986.45154	1365.61951	-579.28827	968.71753	1621.48364	-784.32489	1034.42114	1445.35486	-789.21167	1034.96228	1560.54724	-576.46912	686.14844	1293.89685	-543.95648	489.91873	1325.38135	-580.63184	300.08786	1338.29993	-548.98785	79.0498	1367.67432	-567.48846	50.08397	1427.30872	-402.70221	54.03593	1324.66968	-682.13995	665.37079	1670.47656	-707.60095	456.98318	1625.20422	-771.42804	278.56882	1625.92151	-811.3996	89.81833	1581.41492	-850.12592	36.84834	1524.89587	-663.48621	32.87271	1600.31628	-663.31494	1801.75635	1510.28064	2845.18042	1033.98047	-3360.26416	NaN	NaN	NaN	NaN	NaN	NaN	NaN	NaN	NaN	NaN	NaN	NaN	NaN	NaN	NaN	NaN	NaN	NaN	NaN	NaN	NaN	NaN	NaN	NaN	NaN	NaN	NaN
48	0.47	-547.62238	1742.99585	1420.47375	-547.00079	1726.03503	1563.91602	-670.59778	1657.26001	1412.30371	-682.94629	1638.02563	1554.11511	-719.70178	1524.61902	1494.63245	-787.09448	1254.7041	1507.90393	-584.89716	1451.78979	1469.87158	-542.09387	1276.5697	1483.16833	-777.44141	1359.50391	1572.94617	-673.27911	1492.65051	1309.90503	-748.16589	1308.70654	1235.68335	-795.81439	1178.55652	1228.00281	-842.83875	1058.88403	1204.63965	-834.27228	918.39063	1198.34497	-885.06683	942.95959	1190.52783	-895.70734	877.80389	1176.42407	-618.96558	1497.4928	1669.55286	-608.62158	1313.43689	1769.50586	-561.24823	1172.74548	1793.151	-496.88223	1069.5791	1802.104	-418.71274	963.12677	1769.53406	-453.72577	946.99561	1811.60901	-397.97403	901.24939	1805.91553	-566.94904	985.05475	1365.73425	-571.68878	967.95844	1621.86951	-775.68732	1033.26453	1444.53589	-781.51367	1033.86841	1559.57056	-567.98541	684.83942	1293.96094	-533.49725	488.44269	1326.42993	-561.58215	296.91647	1336.66296	-521.27332	77.1202	1364.81921	-539.59814	47.2116	1423.93152	-373.05142	58.03963	1324.42676	-677.02368	664.84943	1670.42017	-703.93188	456.06393	1624.92261	-769.57251	278.74448	1625.77283	-810.92877	90.21083	1581.14539	-849.82813	36.94713	1524.31763	-663.49615	32.76544	1600.4021	-654.68585	1800.67529	1509.33069	2845.177	1033.79749	-3360.18311	NaN	NaN	NaN	NaN	NaN	NaN	NaN	NaN	NaN	NaN	NaN	NaN	NaN	NaN	NaN	NaN	NaN	NaN	NaN	NaN	NaN	NaN	NaN	NaN	NaN	NaN	NaN
